<?xml version="1.0" encoding="UTF-8" standalone="no"?>
<!-- Created with Inkscape (http://www.inkscape.org/) -->

<svg
   version="1.1"
   id="svg59"
   width="505"
   height="505"
   viewBox="0 0 505 505"
   sodipodi:docname="lotto.svg"
   inkscape:version="1.2.2 (732a01da63, 2022-12-09)"
   xmlns:inkscape="http://www.inkscape.org/namespaces/inkscape"
   xmlns:sodipodi="http://sodipodi.sourceforge.net/DTD/sodipodi-0.dtd"
   xmlns="http://www.w3.org/2000/svg"
   xmlns:svg="http://www.w3.org/2000/svg">
  <defs
     id="defs63" />
  <sodipodi:namedview
     id="namedview61"
     pagecolor="#505050"
     bordercolor="#eeeeee"
     borderopacity="1"
     inkscape:showpageshadow="0"
     inkscape:pageopacity="0"
     inkscape:pagecheckerboard="0"
     inkscape:deskcolor="#505050"
     showgrid="false"
     inkscape:zoom="1.1691766"
     inkscape:cx="89.806795"
     inkscape:cy="225.37229"
     inkscape:window-width="1920"
     inkscape:window-height="1051"
     inkscape:window-x="945"
     inkscape:window-y="1791"
     inkscape:window-maximized="1"
     inkscape:current-layer="g65" />
  <g
     inkscape:groupmode="layer"
     inkscape:label="Image"
     id="g65">
    <g
       id="g366"
       transform="translate(0.82402254,0.45930412)">
      <path
         style="fill:#fd5c1a"
         d="m 191,363.00811 c 0,-4.551 -12.86237,-83.45232 -14.97073,-91.8346 -4.08418,-16.23758 -4.28149,-16.22575 -7.13018,0.4274 -1.11606,6.5244 -2.17577,12.0091 -2.35491,12.18824 -0.46372,0.46373 -18.5807,3.17139 -21.36375,3.19291 -1.9696,0.0152 -3.06687,-1.56631 -7.27241,-10.48206 -2.72406,-5.775 -5.43959,-10.5 -6.03451,-10.5 -1.03334,0 -0.65184,10.55073 0.72585,20.07431 l 0.51707,3.5743 -19.1712,2.72937 c -10.54417,1.50116 -19.271012,2.59272 -19.392993,2.4257 C 94.198032,294.31869 88.894216,177.77116 89.212475,177.46627 89.681879,177.01659 123.70844,172 126.28914,172 c 2.10712,0 3.24453,1.95207 10.19667,17.5 4.30375,9.625 8.19649,17.5 8.65054,17.5 1.05287,0 1.27086,-1.05564 4.43965,-21.5 1.44922,-9.35 2.75871,-17.13374 2.90999,-17.29719 0.15128,-0.16345 7.64132,-1.39408 16.64453,-2.73472 9.00322,-1.34064 17.74966,-2.67436 19.43654,-2.96381 l 3.06707,-0.52627 2.39003,10.12434 2.39003,10.12433 5.49167,-0.64543 c 3.02042,-0.355 5.6588,-0.81258 5.86308,-1.01686 0.20428,-0.20427 -1.65143,-2.39425 -4.12379,-4.86661 -6.59021,-6.59021 -8.19198,-13.69617 -4.78017,-21.20636 4.14058,-9.11438 15.71416,-14.79903 25.61763,-12.58272 2.82693,0.63263 6.75169,2.24551 8.7217,3.58416 7.5465,5.12798 10.11934,17.21783 5.32178,25.00714 -3.25269,5.28105 -3.15373,5.86354 0.88491,5.20816 2.9911,-0.48539 3.48584,-0.2553 4.01905,1.86915 0.33443,1.33248 0.98611,2.42269 1.44817,2.42269 0.46206,0 4.36101,-1.62675 8.66433,-3.61501 4.30331,-1.98825 13.02919,-4.98101 19.39083,-6.65056 10.07932,-2.64523 13.36682,-3.04759 25.56662,-3.12914 13.14703,-0.0879 14.33509,0.0663 19.5,2.53051 3.025,1.44326 7.24406,4.25313 9.37569,6.24415 3.22461,3.01191 5.69445,4.4971 5.60432,3.37005 -0.011,-0.1375 -0.62231,-3.95406 -1.35847,-8.48124 l -1.33847,-8.23124 3.35847,-0.63005 C 335.48869,161.06094 337,160.46169 337,160.0758 c 0,-0.38589 -1.40674,-2.02331 -3.1261,-3.63871 -9.20024,-8.64398 -8.8298,-20.84917 0.89902,-29.62054 6.8844,-6.20689 16.09267,-7.48941 24.76795,-3.44968 11.6624,5.43072 15.58844,18.20409 8.52973,27.75151 -3.04328,4.11625 -2.68851,5.22012 1.4294,4.4476 1.925,-0.36113 3.5,-0.40288 3.5,-0.0928 0,0.31011 3.37018,21.75628 7.48928,47.65816 4.1191,25.90187 7.24255,47.49354 6.94098,47.98148 -0.30156,0.48794 -1.30924,0.88386 -2.23928,0.87983 -0.93004,-0.004 -9.22848,1.18459 -18.44098,2.64138 l -16.75,2.64871 0.0153,3.60862 c 0.0199,4.69663 0.8495,5.8553 4.48794,6.26839 2.56455,0.29116 3.04194,0.80896 3.31011,3.59023 0.36577,3.7936 1.1653,4.03605 3.78044,1.14636 5.73619,-6.33843 20.11059,-10.65924 29.52274,-8.87426 7.79078,1.47749 13.26998,4.50171 18.30764,10.10479 6.19888,6.89465 8.78167,14.0904 9.34545,26.03676 0.41211,8.7327 0.2154,10.18929 -2.04196,15.12001 -5.49583,12.00449 -15.15691,18.6592 -28.31467,19.50362 -5.45002,0.34976 -8.59033,0.0348 -11.7733,-1.18078 l -4.34079,-1.65776 -8.5031,4.08007 c -9.26127,4.44387 -16.86606,5.42323 -23.95218,3.0846 -3.22385,-1.06397 -4.18055,-0.85483 -11.08173,2.42253 -14.40363,6.84025 -24.59359,5.82919 -33.57214,-3.33107 -2.92064,-2.97975 -5.45282,-5.25733 -5.62708,-5.06129 -0.17426,0.19603 -1.23402,2.15642 -2.35503,4.35642 -2.89283,5.67727 -8.74009,10.94928 -15.70765,14.16237 -7.91337,3.64923 -18.68222,3.87486 -25.43783,0.53296 C 243.62136,349.9879 241.51238,349 241.37553,349 c -0.13685,0 -0.38982,1.44933 -0.56217,3.22073 l -0.31336,3.22074 -24.75,4.11148 c -13.6125,2.26131 -24.75,3.81613 -24.75,3.45516 z m 26.5,-9.8728 16,-2.74001 -0.30723,-6.44765 c -0.16898,-3.54621 -0.708,-6.85166 -1.19781,-7.34546 -0.52606,-0.53033 -3.87936,-0.48273 -8.19277,0.1163 -4.0162,0.55776 -7.40726,0.9317 -7.53567,0.83099 -0.12842,-0.10071 -2.1035,-12.97805 -4.38907,-28.6163 -2.28557,-15.63825 -4.27794,-28.58062 -4.42749,-28.76082 -0.28607,-0.34471 -21.64205,2.6864 -22.09109,3.13544 -0.14311,0.14311 2.18278,16.2199 5.16864,35.7262 2.98587,19.5063 5.43867,35.8035 5.45067,36.216 0.0357,1.22793 4.6511,0.77444 21.52182,-2.11469 z m 52.70083,-8.31705 c 5.82524,-2.50595 10.91275,-7.93034 13.29963,-14.18028 1.39097,-3.64221 1.65954,-6.37042 1.22104,-12.4036 -0.99445,-13.68241 -5.36479,-22.05565 -14.01303,-26.8479 -4.44295,-2.46197 -6.31079,-2.88619 -12.70847,-2.88633 -9.80126,-2e-4 -15.77526,2.30157 -20.80563,8.01637 -4.60333,5.22966 -6.19437,10.02459 -6.19437,18.668 0,16.00612 8.44882,28.642 21.33198,31.90367 4.47274,1.13238 12.25932,0.14322 17.86885,-2.26993 z M 257.6563,331.86747 c -1.01403,-0.58945 -2.49244,-2.62438 -3.28535,-4.52208 -1.66314,-3.98045 -2.95261,-17.89172 -2.00749,-21.65741 0.73331,-2.92173 4.07198,-4.40141 6.11163,-2.70865 2.24577,1.86382 4.55827,9.97356 5.21187,18.27756 0.52117,6.62151 0.34652,8.04863 -1.1932,9.75 -2.06098,2.27737 -2.32065,2.32356 -4.83746,0.86058 z m 63.66556,5.53853 c 5.12486,-1.74622 5.23739,-2.04668 4.03957,-10.78575 -0.63044,-4.59957 -0.679,-4.6513 -3.81413,-4.06315 -2.06002,0.38647 -3.56348,0.12833 -4.27983,-0.73482 -0.60735,-0.73181 -1.96899,-7.02962 -3.02588,-13.99514 l -1.92161,-12.66459 3.40676,-0.63911 c 3.05942,-0.57395 3.35284,-0.9136 2.87789,-3.33128 -0.29089,-1.48069 -0.82942,-4.87905 -1.19676,-7.55191 l -0.66787,-4.85974 -3.37,0.54687 c -2.23617,0.36288 -3.37676,0.14747 -3.39011,-0.64025 -0.0417,-2.45968 -1.87602,-13.9166 -2.29532,-14.33589 -0.80013,-0.80013 -20.68533,7.90596 -20.64102,9.03701 0.024,0.61146 0.40765,2.99211 0.85267,5.29032 0.75791,3.91418 0.65185,4.21804 -1.67629,4.80237 -2.42505,0.60865 -2.46893,0.78441 -1.80755,7.23991 0.81669,7.97134 1.06637,8.44808 4.03431,7.70317 2.23924,-0.56201 2.36809,-0.26084 3.52806,8.24633 2.9455,21.60219 5.16657,27.17955 12.20488,30.64789 4.2365,2.08767 11.16866,2.12316 17.14223,0.0878 z m 36.6579,-6.01458 C 360.19089,330.5067 362,329.53106 362,329.22333 c 0,-0.30773 -0.49013,-3.37406 -1.08919,-6.81407 l -1.08918,-6.25457 -3.37527,0.54773 c -4.29856,0.69756 -4.85412,-0.51456 -6.93459,-15.12989 -1.64598,-11.56308 -1.43088,-12.52166 2.81782,-12.55722 1.65955,-0.0139 1.76533,-0.64267 1.13806,-6.76531 -0.38034,-3.7125 -0.97866,-7.05287 -1.32959,-7.42305 -0.35093,-0.37018 -1.98806,-0.82018 -3.63806,-1 -2.93142,-0.31948 -3.02031,-0.49268 -3.88861,-7.57695 -0.62254,-5.07917 -1.30297,-7.25 -2.27244,-7.25 -0.7611,0 -5.47745,1.67426 -10.48079,3.72059 l -9.09696,3.72058 0.60407,5.77942 c 0.59695,5.71129 0.57344,5.77941 -1.99415,5.77941 -2.52438,0 -2.5797,0.13497 -1.94679,4.75 1.3104,9.55516 1.54328,10.11078 4.37578,10.43997 2.62932,0.30558 2.69359,0.49644 4.48175,13.31003 2.91321,20.87552 7.01925,26.5 19.34579,26.5 3.48546,0 8.13912,-0.72312 10.35211,-1.60858 z m -132.25357,-1.20103 c 0.93071,-0.59128 0.96849,-1.71231 0.15675,-4.65217 -1.76515,-6.39286 -0.74151,-20.2878 1.88875,-25.63808 2.68178,-5.45504 8.36031,-11.40575 13.22831,-13.86236 9.1509,-4.61795 21.82168,-5.1032 30.00568,-1.14912 2.40349,1.16123 4.73546,2.11134 5.18215,2.11134 0.44669,0 0.81217,-1.72777 0.81217,-3.83948 0,-3.03002 0.48231,-4.05925 2.2877,-4.88183 1.95643,-0.89142 2.23074,-1.63957 1.89436,-5.16679 -0.21633,-2.26844 -0.71374,-4.32246 -1.10536,-4.5645 -0.39161,-0.24203 -4.50658,0.14318 -9.14436,0.85601 -35.00647,5.38057 -56.53105,8.95478 -57.08362,9.47887 -0.3582,0.33975 1.09006,11.86772 3.21835,25.61772 2.1283,13.75 3.88387,25.3375 3.90128,25.75 0.0413,0.97823 3.18622,0.93883 4.75784,-0.0596 z m 168.45112,-3.2229 c 6.53656,-1.8155 12.99968,-6.98717 16.03595,-12.83168 2.30261,-4.4323 2.78674,-6.62899 2.78674,-12.64467 0,-20.06898 -10.34673,-32.69747 -26.74799,-32.64672 -16.81695,0.052 -26.1331,8.38804 -27.0486,24.20283 -1.36545,23.5873 15.00656,39.46608 34.9739,33.92024 z m -9.69605,-15.9882 c -3.44599,-3.80777 -5.80504,-21.63726 -3.44608,-26.04503 1.68907,-3.15606 5.49293,-2.44846 7.29912,1.35779 3.48211,7.338 4.99408,22.97957 2.4657,25.50795 -1.78032,1.78032 -4.25582,1.45879 -6.31874,-0.82071 z M 113.75,286.36613 c 10.34772,-1.38448 12.25,-1.90932 12.25,-3.37982 0,-0.95745 -0.90145,-13.1196 -2.00322,-27.02701 -1.10178,-13.9074 -1.83808,-25.45133 -1.63624,-25.65317 0.20184,-0.20185 1.29286,1.7842 2.42447,4.41344 4.61397,10.72025 20.54466,43.8588 21.59093,44.91279 0.81682,0.82286 3.07522,0.85685 8.26254,0.12436 l 7.13848,-1.00801 4.15688,-26.12436 c 2.28629,-14.36839 4.28399,-26.79935 4.43934,-27.62435 0.40583,-2.15516 2.20951,4.62599 7.67289,28.84726 2.64831,11.74099 4.9745,21.50664 5.1693,21.70144 0.1948,0.1948 6.75103,-0.59736 14.56941,-1.76036 13.07929,-1.94557 14.21425,-2.28131 14.20313,-4.20144 -0.0129,-2.22482 -24.55132,-99.48364 -25.28482,-100.21714 -0.61116,-0.61116 -28.06593,3.63012 -28.83156,4.45397 -0.34566,0.37195 -2.58561,13.44509 -4.97767,29.05144 -4.1211,26.887 -4.42013,28.19815 -5.70166,25 -2.32599,-5.80467 -21.49533,-48.33786 -22.12463,-49.09043 -0.65741,-0.78619 -28.174118,3.05666 -29.212835,4.07972 -0.354896,0.34955 0.414437,22.46054 1.709629,49.13554 1.295191,26.675 2.373061,50.1875 2.395265,52.25 0.0222,2.0625 0.377871,3.75115 0.790371,3.75256 0.4125,10e-4 6.2625,-0.73498 13,-1.63643 z m 122.99605,-17.57408 c 11.25094,-1.74278 14.24887,-2.53283 14.22982,-3.75 -0.0353,-2.25438 -12.76982,-82.17175 -13.15218,-82.53833 -0.4161,-0.39894 -29.93972,4.27897 -30.49211,4.83137 -0.22873,0.22872 2.5281,18.92701 6.12628,41.55176 3.59818,22.62474 6.54214,41.35578 6.54214,41.62452 0,0.78521 1.7125,0.60939 16.74605,-1.71932 z m 43.00276,-6.65011 c 6.73685,-0.99343 12.42683,-1.99427 12.64442,-2.22409 0.21758,-0.22982 -1.84627,-14.96597 -4.58632,-32.74701 -2.74006,-17.78104 -4.73327,-32.57781 -4.42937,-32.88172 0.30391,-0.3039 3.09567,-0.60578 6.20391,-0.67084 8.52629,-0.17845 8.50173,-0.23923 13.86755,34.30811 2.51374,16.18451 4.69446,29.5504 4.84604,29.70198 0.2681,0.2681 23.95311,-3.21295 28.45496,-4.1821 1.57888,-0.3399 2.25,-1.20507 2.25,-2.90057 0,-6.2041 -9.04485,-59.49272 -10.78713,-63.5534 -2.69444,-6.27987 -8.84857,-11.53982 -15.89993,-13.5897 -11.28254,-3.27993 -36.57205,-0.12477 -52.48901,6.54861 -4.02816,1.68886 -7.95267,3.47073 -8.72114,3.95972 -1.17032,0.74469 -0.4663,6.87298 4.33548,37.73907 3.15297,20.2675 5.97547,38.0875 6.27221,39.6 0.65635,3.34552 1.21298,3.37304 18.03833,0.89194 z M 365.5,248.85935 c 7.7,-1.18382 14.35852,-2.46749 14.79672,-2.85259 0.69063,-0.60697 -11.7784,-82.82177 -12.70102,-83.74439 -0.36554,-0.36554 -29.65796,4.44608 -30.10821,4.94562 -0.14476,0.16061 2.60181,18.96701 6.10348,41.79201 3.50167,22.825 6.3762,41.6125 6.38785,41.75 0.038,0.44814 1.34174,0.28933 15.52118,-1.89065 z M 228.15153,173.25783 C 232.52382,170.68443 235,166.07681 235,160.51432 c 0,-4.15571 -0.46924,-5.21886 -3.75267,-8.50228 -6.47089,-6.47089 -17.17616,-6.28321 -23.87798,0.41861 -3.70289,3.70289 -4.86105,7.14824 -3.97531,11.82592 1.86142,9.83027 15.14394,14.65949 24.75749,9.00126 z m 125.1258,-18.31796 c 5.18605,-1.44017 10.4845,-6.34168 11.68844,-10.81274 1.29723,-4.81757 -0.2308,-10.40384 -3.5627,-13.02471 C 350.18273,122.27649 333.5,128.79195 333.5,142 c 0,5.71273 2.41463,9.61911 7.57108,12.24845 3.93704,2.00754 6.86891,2.17361 12.20625,0.69142 z"
         id="path374" />
      <path
         style="fill:#003bf0"
         d="M 226.20335,443.30278 C 222.36437,436.26125 212.85251,418.8 205.06587,404.5 c -7.78664,-14.3 -14.6994,-26.49147 -15.3617,-27.09216 -0.88237,-0.80029 -13.76447,1.64833 -48.20417,9.16261 -25.85,5.64012 -47.040453,10.18159 -47.089894,10.09216 -0.04944,-0.0894 6.361954,-20.63761 14.247544,-45.66261 7.88559,-25.025 14.33854,-46.0579 14.33989,-46.73979 0.001,-0.68188 -2.47932,-2.88759 -5.51262,-4.90159 -3.03329,-2.01399 -5.25095,-3.93108 -4.92813,-4.26021 0.32282,-0.32913 5.3921,-1.27866 11.26508,-2.11007 l 10.67813,-1.51165 -0.29952,-6.98835 c -0.16473,-3.84359 -0.51934,-8.33834 -0.78801,-9.98834 -0.27795,-1.70699 1.33924,0.82187 3.75213,5.86734 l 4.24063,8.86733 6.54738,-0.66572 c 3.60107,-0.36615 9.76229,-1.14158 13.6916,-1.72317 l 7.14422,-1.05744 1.24966,-8.14417 c 0.68731,-4.47929 1.54587,-8.96823 1.90791,-9.97542 1.19618,-3.32773 5.73792,19.72986 11.58821,58.83125 3.12702,20.9 5.97356,38.295 6.32564,38.65556 0.50348,0.5156 29.45656,-3.92591 49.89015,-7.65333 2.42982,-0.44324 3.25,-1.11558 3.25,-2.66417 0,-1.67251 0.43321,-1.94712 2.25,-1.42622 1.2375,0.35481 4.6035,1.14261 7.48001,1.75067 12.73762,2.69259 30.08522,-5.16937 35.80275,-16.22586 l 1.56772,-3.03164 4.89691,4.40273 c 8.90043,8.00225 20.33305,8.83435 34.08454,2.48077 5.96487,-2.75594 8.03403,-3.28622 9.97231,-2.55568 1.34517,0.50699 6.04576,0.77383 10.44576,0.59298 6.7734,-0.27841 9.1934,-0.89845 15.78342,-4.0439 7.39721,-3.53073 7.8698,-3.62869 9.52428,-1.97421 1.37,1.37 2.55193,8.09153 5.54811,31.55172 2.09399,16.39597 3.65806,29.94502 3.47572,30.10899 -0.18234,0.16398 -20.58153,-4.3125 -45.33153,-9.94773 -41.47013,-9.44216 -45.12972,-10.11937 -46.65369,-8.63327 -0.90952,0.88692 -14.11207,18.71259 -29.33898,39.61259 -15.22692,20.9 -28.05401,38.13625 -28.50466,38.30278 -0.45065,0.16653 -3.96034,-5.45847 -7.79932,-12.5 z M 222.9242,328.75 c -0.0417,-0.1375 -1.75003,-11.05 -3.79629,-24.25 l -3.72049,-24 3.54629,-0.69568 c 1.95046,-0.38263 15.02129,-2.51652 29.04629,-4.74199 14.025,-2.22546 26.7375,-4.26366 28.25,-4.52931 2.5562,-0.44898 2.75,-0.24303 2.75,2.92243 0,2.77023 -0.41969,3.46505 -2.25,3.725 -1.87487,0.26627 -2.19723,0.84737 -1.93346,3.4854 l 0.31654,3.16585 -6.31654,-2.00524 c -12.321,-3.9114 -27.72906,-0.62064 -36.35721,7.76496 -7.50089,7.29003 -8.95933,11.62966 -8.95933,26.65871 0,10.80811 -0.14359,13.9253 -0.5758,12.49987 z M 69.778376,267.15172 C 57.831483,259.09328 48.057901,252.275 48.059305,252 c 0.0014,-0.275 9.191375,-5.97707 20.422158,-12.67126 l 20.419606,-12.17127 0.507439,4.17127 c 0.582986,4.79227 2.667913,49.93578 2.321226,50.25992 -0.126354,0.11813 -10.004465,-6.37849 -21.951358,-14.43694 z m 343.212944,6.33423 c -2.51897,-4.07577 -9.17393,-8.93345 -15.10606,-11.02643 -5.34921,-1.88731 -18.13545,-1.87136 -24.54011,0.0306 -2.75982,0.81958 -6.88365,2.84171 -9.16405,4.49363 l -4.14619,3.00349 -0.62586,-2.49363 C 358.89578,265.44864 358.17299,265 355.39159,265 352.30138,265 352,264.73744 352,262.04531 c 0,-2.55187 0.44307,-3.03108 3.25,-3.51507 1.7875,-0.30822 10.16379,-1.6549 18.61398,-2.99263 8.45018,-1.33772 15.59611,-2.66436 15.87983,-2.94809 0.28372,-0.28372 -1.29092,-11.89493 -3.4992,-25.80269 -2.20827,-13.90775 -3.92219,-25.39383 -3.80871,-25.52461 0.33578,-0.38697 74.04081,49.70887 74.31516,50.51052 C 456.97283,252.42077 416.94575,277 415.66867,277 c -0.27805,0 -1.48286,-1.58132 -2.67735,-3.51405 z m -276.27668,-88.78852 -7.78536,-17.23439 -3.89647,-29.96635 c -2.14307,-16.48149 -3.81466,-30.04635 -3.71465,-30.14412 0.10001,-0.0978 20.5379,4.42593 45.41753,10.05269 24.87963,5.62675 45.61861,9.97493 46.08662,9.6626 0.46801,-0.31232 13.81467,-18.34286 29.65923,-40.06786 15.84456,-21.725 28.90568,-39.625093 29.0247,-39.777985 0.11902,-0.152893 9.33627,16.497107 20.48277,37 11.14651,20.502895 21.11463,38.690345 22.15138,40.416565 l 1.88501,3.13858 8.62149,-1.92106 c 4.74182,-1.05658 8.86111,-1.68144 9.15397,-1.38858 0.29286,0.29287 -0.002,0.53248 -0.65622,0.53248 -1.83017,0 -6.9156,8.68485 -7.65781,13.07795 -0.99578,5.89396 0.32589,11.44278 4.04024,16.96228 L 332.86475,160 h -2.51183 c -2.20101,0 -2.44675,0.34029 -1.9859,2.75 0.28926,1.5125 0.83078,4.75844 1.20337,7.21321 l 0.67745,4.4632 -3.74196,-2.85413 c -2.05808,-1.56977 -6.05134,-3.7401 -8.87392,-4.82295 -13.90597,-5.33486 -42.01347,-2.13929 -63.88196,7.26281 L 245,177.7741 v -2.51205 c 0,-2.23169 -0.31984,-2.44808 -2.86577,-1.9389 l -2.86577,0.57316 1.92945,-3.69816 c 2.99845,-5.74712 2.18263,-15.77301 -1.73731,-21.35041 -4.1468,-5.90017 -10.85102,-9.195 -18.79457,-9.2367 -7.88208,-0.0414 -12.90754,1.71083 -17.95304,6.25965 -9.16476,8.26258 -10.16579,19.59765 -2.58939,29.32067 3.48217,4.46877 3.51911,4.80864 0.5226,4.80864 -2.12863,0 -2.60206,-0.91987 -4.94878,-9.61544 -1.42723,-5.28849 -2.77801,-9.79848 -3.00173,-10.0222 -0.22372,-0.22372 -9.4702,0.95323 -20.54773,2.61544 -11.07754,1.66221 -20.49307,3.0222 -20.9234,3.0222 -0.43034,0 -1.85313,7.0875 -3.16176,15.75 -1.30863,8.6625 -2.64561,16.74716 -2.97106,17.96591 -0.45276,1.69546 -2.42027,-1.83191 -8.3771,-15.01848 z m 245.11186,12.75332 c -0.29682,-0.52291 -2.04397,-10.77615 -3.88255,-22.78497 l -3.34287,-21.83423 -2.57286,0.37762 -2.57285,0.37761 1.93898,-3.91903 c 2.39223,-4.83512 2.5709,-13.94228 0.35643,-18.16775 -2.81601,-5.37328 -10.82621,-11.37606 -15.45112,-11.57895 -0.98981,-0.0434 -1.31348,-0.28048 -0.71925,-0.5268 1.53729,-0.63725 54.87259,-12.22146 55.14569,-11.97742 0.16839,0.15047 -24.91132,80.71204 -27.8729,89.53392 -0.26787,0.79791 -0.72988,1.02291 -1.0267,0.5 z"
         id="path372" />
      <path
         style="fill:#0020fd"
         d="m 207.49795,431.42273 c -21.19783,-38.90088 -23.97422,-43.52446 -25.87201,-43.08519 -21.32766,4.93662 -101.780267,21.84147 -102.156439,21.46529 -0.283348,-0.28334 6.469144,-22.7424 15.005536,-49.909 8.536393,-27.16661 15.521673,-50.17774 15.522843,-51.13586 0.001,-1.04928 -2.80217,-3.60676 -7.04976,-6.43121 -7.741495,-5.14775 -7.666618,-5.69695 0.90768,-6.65756 5.05865,-0.56674 5.69668,-0.37143 11.5,3.5202 3.37931,2.26612 6.30597,4.24983 6.50369,4.40824 0.19772,0.1584 -6.24027,21.28825 -14.30664,46.95521 -8.06638,25.66695 -14.437163,46.89617 -14.1573,47.17603 0.279863,0.27987 21.98335,-4.14815 48.22998,-9.84002 27.33751,-5.92845 47.86907,-9.93027 48.06749,-9.36887 1.15634,3.27188 43.05203,78.88964 43.84087,79.12865 0.53136,0.16099 14.01611,-17.66991 29.96611,-39.62423 15.95,-21.95431 29.56302,-39.94111 30.25116,-39.97067 0.68813,-0.0296 21.16256,4.45145 45.49873,9.9578 24.33617,5.50635 44.72352,9.8289 45.30523,9.60568 0.70675,-0.2712 -0.19331,-9.97934 -2.7129,-29.26154 -2.07381,-15.87062 -3.78668,-29.76757 -3.80639,-30.88211 -0.0312,-1.76546 0.47928,-1.9773 3.96417,-1.64496 2.2,0.2098 4.02109,0.44669 4.04687,0.52643 0.30143,0.93219 9.57008,73.22373 9.41544,73.43642 -0.11655,0.16031 -22.19263,-4.6872 -49.05795,-10.77224 -26.86532,-6.08504 -49.34816,-10.87103 -49.96186,-10.63553 -0.61369,0.2355 -15.25182,19.80828 -32.52916,43.49506 -17.27733,23.68679 -31.69593,43.07912 -32.04133,43.09407 -0.34539,0.0149 -11.31372,-19.58259 -24.37406,-43.55009 z M 60.566497,273.53702 C 43.062313,261.73238 28.594443,251.92778 28.415675,251.74901 c -0.178769,-0.17877 11.652228,-7.50793 26.291103,-16.28702 14.638875,-8.7791 28.343481,-17 30.454679,-18.26867 L 89,214.88664 v 5.41865 5.41864 l -20.75,12.43655 c -11.4125,6.84011 -20.75,13.06479 -20.75,13.83263 0,0.76784 9.9,8.07948 22,16.24808 l 22,14.852 0.5,5.95355 c 0.275,3.27445 0.475764,5.95348 0.446143,5.9534 -0.02962,-8e-5 -14.375462,-9.65848 -31.879646,-21.46312 z M 417.94558,283.25 c -0.55271,-1.5125 -1.17185,-3.23277 -1.37588,-3.82282 -0.20402,-0.59006 9.27403,-6.84594 21.06235,-13.90197 11.78832,-7.05602 21.3061,-13.20137 21.15063,-13.65633 C 458.62721,251.41393 441.625,239.59111 421,225.59597 c -20.625,-13.99515 -37.43971,-25.81703 -37.36602,-26.27085 0.0737,-0.45382 6.4862,-21.10335 14.25,-45.88786 C 405.64779,128.65275 412,107.84025 412,107.18726 412,106.53427 411.59515,106 411.10034,106 c -0.49481,0 -13.43231,2.74681 -28.75,6.10403 -15.31769,3.35721 -30.32534,6.45685 -33.35034,6.88807 -3.025,0.43122 -9.93334,1.9564 -15.35187,3.38929 -5.41853,1.43288 -11.63668,2.72075 -13.81812,2.86192 L 315.86377,125.5 294.18188,85.750719 C 282.25685,63.888614 272.06475,46.146196 271.53279,46.323124 c -0.53197,0.176927 -13.9293,18.064104 -29.77183,39.749281 -15.84254,21.685175 -29.2292,39.572395 -29.74813,39.749375 -0.51894,0.17698 -21.2306,-4.26403 -46.02592,-9.86892 -24.79532,-5.60489 -45.33477,-9.93833 -45.64322,-9.62988 -0.30845,0.30845 1.26717,14.63283 3.50138,31.83195 2.23421,17.19912 3.97057,31.33687 3.85857,31.41722 -0.112,0.0804 -2.28758,0.41854 -4.83463,0.75153 l -4.63099,0.60543 -1.17523,-9.21455 C 116.41641,156.64655 114.18986,139.3375 112.11488,123.25 110.03991,107.1625 108.52766,94 108.75432,94 c 0.22666,0 22.30234,4.958744 49.05706,11.01943 26.75473,6.06069 49.14378,10.82802 49.75345,10.59407 0.60966,-0.23395 15.24449,-19.805466 32.52183,-43.492253 17.27733,-23.686787 31.69593,-43.079117 32.04133,-43.094066 0.34539,-0.01495 11.31372,19.58259 24.37406,43.550089 21.19722,38.89977 23.97427,43.52448 25.87201,43.08543 22.30492,-5.16031 101.7693,-21.852678 102.16177,-21.460206 0.29577,0.295768 -6.48815,22.864196 -15.07536,50.152056 -8.58722,27.28786 -15.46627,50.36727 -15.28679,51.28758 0.25117,1.28796 37.46147,27.14704 79.65803,55.35787 2.16455,1.44713 1.25839,2.09041 -25.70786,18.25 -15.37332,9.2125 -28.22641,16.75 -28.56242,16.75 -0.33601,0 -1.06315,-1.2375 -1.61585,-2.75 z"
         id="path370" />
      <path
         style="fill:#000000"
         d="m 203.13022,453.48287 c -14.50337,-26.68209 -26.65337,-48.67552 -27,-48.8743 C 175.7836,404.4098 149.175,409.97561 117,416.97704 c -32.175,7.00143 -58.630941,12.403 -58.790981,12.00348 -0.160039,-0.39952 7.612009,-25.87108 17.271218,-56.60346 9.659209,-30.73238 17.773102,-56.55469 18.030873,-57.38289 0.333872,-1.07272 -12.749132,-10.42055 -45.486268,-32.5 C 22.749623,265.44737 2.0541718,251.22685 2.0349496,250.89299 2.0157273,250.55914 18.688611,240.27648 39.085801,228.04264 L 76.171602,205.7993 75.608228,196.64965 C 74.295535,175.33046 73.858695,165 74.269874,165 c 1.857783,0 27.261956,-4.19849 27.629776,-4.56631 0.25899,-0.259 -1.982981,-19.52325 -4.982168,-42.80944 l -5.453066,-42.338534 5.517792,1.267728 C 177.51567,95.05623 201.34247,100.08401 202.56166,98.832136 203.2752,98.099461 219.44953,76.125 238.5046,50 257.55967,23.875 273.45389,2.3877463 273.82509,2.2505473 c 0.3712,-0.1371989 12.54542,21.5845967 27.05383,48.2706577 14.5084,26.68606 26.6584,48.677201 27,48.8692 0.34159,0.192 26.94608,-5.375044 59.12108,-12.371209 32.175,-6.996164 58.63408,-12.385297 58.79797,-11.97585 0.16388,0.409448 -7.60922,25.879694 -17.27356,56.600554 -9.66433,30.72085 -17.78137,56.53373 -18.03785,57.36193 -0.33195,1.07189 12.77699,10.43777 45.4886,32.5 25.27522,17.0468 45.97067,31.26921 45.98989,31.60538 0.0192,0.33617 -15.26505,9.78234 -33.96505,20.99151 l -34,20.38029 -0.006,4.50849 c -0.0249,19.34657 -10.45924,36.87942 -26.45037,44.44443 -3.04911,1.44247 -5.52414,3.17198 -5.50005,3.84337 0.0241,0.67138 2.39791,19.26969 5.27518,41.32957 l 5.23141,40.10886 -5.52519,-1.26945 C 326.50768,408.94878 302.65749,403.91603 301.43834,405.16786 300.7248,405.90054 284.55047,427.875 265.4954,454 c -19.05507,26.125 -34.94929,47.61155 -35.32049,47.74788 -0.3712,0.13634 -12.54131,-21.58292 -27.04469,-48.26501 z m 61.40199,-19.01916 c 17.47691,-23.94496 32.10806,-43.74138 32.51366,-43.99206 0.4056,-0.25067 23.05315,4.57372 50.32788,10.72087 27.27474,6.14715 49.77219,10.98107 49.99434,10.74206 0.22216,-0.23902 -1.78121,-17.28566 -4.45191,-37.88142 -2.67071,-20.59576 -4.75691,-37.50689 -4.63601,-37.58028 0.12091,-0.0734 2.69483,-0.66811 5.71983,-1.32161 12.1062,-2.6153 22.39779,-11.83206 25.63109,-22.95422 1.2205,-4.19836 1.49882,-7.94496 1.09411,-14.72846 l -0.54278,-9.09777 28.90879,-17.3223 C 464.99104,261.52126 478,253.19347 478,252.54231 c 0,-0.65115 -18.45,-13.66552 -41,-28.92082 -22.55,-15.25531 -40.99685,-28.27345 -40.99301,-28.9292 0.004,-0.65576 7.16864,-23.91729 15.92176,-51.69229 8.75313,-27.775 15.61248,-50.804739 15.24301,-51.177198 -0.36947,-0.372459 -24.27547,4.456518 -53.12445,10.731058 -38.44046,8.36065 -52.64802,11.0922 -53.18389,10.22515 C 320.46126,112.1283 309.63997,92.339782 296.81611,68.804524 283.99225,45.269266 272.9924,26.010188 272.37199,26.006573 c -0.6204,-0.0036 -15.42729,19.584756 -32.9042,43.529715 -17.47691,23.944958 -32.10806,43.741382 -32.51366,43.992062 -0.4056,0.25067 -23.05315,-4.57372 -50.32788,-10.72087 C 129.35151,96.660333 106.85406,91.826405 106.63191,92.065423 106.40975,92.30444 108.42973,109.375 111.12073,130 c 2.69101,20.625 4.77721,38.39557 4.63601,39.49016 -0.22775,1.76541 -1.83769,2.22179 -14.25674,4.04135 l -14,2.0512 0.273434,13.45865 c 0.150388,7.40225 0.50379,15.70864 0.785338,18.45864 l 0.511906,5 -31.535339,18.88791 C 40.190902,241.77626 26,250.80812 26,251.45871 c 0,0.65059 18.45,13.6645 41,28.9198 22.55,15.25531 40.9982,28.27345 40.996,28.9292 -0.002,0.65576 -7.16594,23.91729 -15.919434,51.69229 -8.753489,27.775 -15.614189,50.80474 -15.246,51.1772 0.368189,0.37246 24.273144,-4.45652 53.122124,-10.73106 39.71716,-8.63833 52.63978,-11.10936 53.22325,-10.1772 0.42381,0.67708 11.2451,20.46729 24.04731,43.97824 12.80221,23.51095 23.78435,42.74845 24.40476,42.75 0.6204,0.002 15.42729,-19.58851 32.9042,-43.53347 z M 197.52649,352.75 c -0.45649,-1.38925 -9.4845,-61.81899 -9.81659,-65.70821 -0.20129,-2.35736 0.15577,-2.51132 8.70375,-3.75301 4.90251,-0.71215 9.10261,-1.10585 9.33355,-0.87491 0.23095,0.23095 2.30581,13.1698 4.6108,28.75302 3.89913,26.36057 4.32843,28.31996 6.16645,28.14418 1.08655,-0.10392 4.73933,-0.48862 8.11728,-0.85491 l 6.14174,-0.66597 0.71091,5.16893 c 0.391,2.84291 0.54044,5.33939 0.3321,5.54773 -0.46749,0.4675 -29.96727,5.49315 -32.24389,5.49315 -0.90495,0 -1.83019,-0.5625 -2.0561,-1.25 z m 53.22148,-8.17675 c -9.13318,-3.25931 -14.83123,-10.66052 -17.29148,-22.45993 -2.43131,-11.6606 -0.0831,-19.85327 7.56754,-26.40189 10.09183,-8.63823 27.81752,-7.16328 35.53663,2.95699 6.02665,7.90134 8.3458,24.54911 4.57368,32.83158 -4.91264,10.7867 -19.36728,17.00557 -30.38637,13.07325 z m 13.87209,-13.11614 c 3.05704,-4.66564 -0.16446,-25.00151 -4.67516,-29.51221 -2.58434,-2.58434 -4.52866,-2.45205 -7.49035,0.50965 -2.04816,2.04815 -2.4511,3.41407 -2.43371,8.25 0.0265,7.38103 2.09162,17.29195 4.30777,20.67421 2.39318,3.65246 7.92203,3.69455 10.29145,0.0784 z m 39.33189,3.28949 c -5.48154,-3.69401 -7.03669,-7.5906 -9.41072,-23.57957 L 292.36349,296.5 l -2.68175,0.18826 c -1.48396,0.10418 -2.70836,-0.34246 -2.74135,-1 -0.0328,-0.65354 -0.41145,-3.32576 -0.84147,-5.93826 -0.75743,-4.60164 -0.70427,-4.75 1.70207,-4.75 2.42635,0 2.47011,-0.13328 1.88786,-5.75 l -0.59606,-5.75 8.7036,-3.66143 8.70361,-3.66144 1,7.66144 1,7.66143 3.21603,-0.30942 c 3.45995,-0.33289 3.40833,-0.42008 4.77167,8.05942 0.58595,3.64439 0.51716,3.75 -2.44239,3.75 -2.71849,0 -3.04531,0.32266 -3.04531,3.00658 0,4.35588 2.80093,22.33962 3.9501,25.36218 0.95923,2.52297 4.97617,4.41288 6.87937,3.23663 1.0832,-0.66945 2.13692,2.60165 2.15688,6.69564 0.011,2.25665 -0.66033,3.08263 -3.45423,4.25 -5.31045,2.21885 -12.6202,1.8642 -16.58017,-0.80443 z M 341.5,330.11927 c -7.58821,-3.48452 -8.76704,-6.02186 -11.52873,-24.81479 C 328.88707,297.92668 328,291.68998 328,291.44515 328,291.20032 326.65,291 325,291 c -2.49123,0 -3,-0.40278 -3,-2.375 0,-1.30625 -0.26927,-3.72136 -0.59838,-5.3669 -0.52235,-2.61174 -0.26742,-3.07497 2.00631,-3.64564 2.51504,-0.63123 2.5826,-0.84167 1.96293,-6.11415 l -0.64177,-5.46041 6.44073,-2.88976 c 10.8049,-4.84783 10.54528,-4.84931 11.30202,0.0644 1.75373,11.38743 1.47312,10.78748 5.04561,10.78748 3.1914,0 3.31627,0.15557 3.97621,4.95391 0.79832,5.80449 0.26041,7.04609 -3.05268,7.04609 -2.91114,0 -2.88975,-0.55953 -0.55705,14.57765 2.28115,14.80262 3.03579,16.42235 7.65125,16.42235 2.72116,0 3.46482,0.40244 3.46482,1.875 0,1.03125 0.27481,3.24903 0.61068,4.92839 0.59291,2.96456 0.45671,3.09912 -4.6815,4.625 -6.71258,1.99342 -8.50479,1.95217 -13.42918,-0.30912 z m 35,-5.96647 c -5.27812,-2.51843 -9.8832,-7.49832 -12.6252,-13.6528 -2.75844,-6.1914 -3.77325,-19.83745 -1.83992,-24.74126 3.80009,-9.63873 12.55321,-15.1673 23.96512,-15.13663 13.61662,0.0366 22.23326,8.67862 24.84926,24.92251 1.91948,11.91887 -1.94931,21.14954 -11.2828,26.92 -6.33411,3.91607 -16.79297,4.68154 -23.06646,1.68818 z M 392,313 c 1.51974,-1.51974 2,-3.33333 2,-7.55259 0,-7.41136 -2.66164,-18.74754 -5.14219,-21.90104 -3.45227,-4.38886 -9.01833,-2.73931 -10.4858,3.10755 -0.72058,2.87102 0.24325,14.08618 1.67287,19.46553 C 382.16471,314.09594 387.71163,317.28837 392,313 Z M 101.98329,285.75 c -0.54702,-8.18565 -4.796167,-101.27046 -4.630369,-101.43625 0.406147,-0.40615 25.908969,-4.38519 26.205479,-4.08868 0.73873,0.73873 21.51718,47.21929 23.09645,51.66584 0.99802,2.81 2.13857,5.10909 2.53456,5.10909 0.39598,0 0.92016,-1.4625 1.16484,-3.25 2.17255,-15.87128 8.72278,-58.16036 9.06094,-58.49852 0.35548,-0.35549 23.68979,-4.20351 25.71202,-4.24012 0.8381,-0.0152 25.28326,97.91151 24.60954,98.58522 -0.28951,0.28951 -4.73621,1.17452 -9.88156,1.96669 -5.14536,0.79217 -10.76562,1.67512 -12.48947,1.96212 -2.96503,0.49364 -3.17193,0.31804 -3.83137,-3.25179 -0.38339,-2.07548 -3.13547,-14.40605 -6.11572,-27.40128 C 174.43839,229.8771 172,218.0646 172,216.62232 c 0,-3.71232 -1.67082,-3.26036 -2.32042,0.62768 -0.29865,1.7875 -2.45705,15.50826 -4.79645,30.49057 -2.33939,14.98232 -4.54078,27.7055 -4.89197,28.27373 -0.53907,0.87224 -12.12331,3.38875 -12.49308,2.71394 -1.62104,-2.95831 -21.5305,-45.96877 -23.25056,-50.22824 -4.28498,-10.61114 -5.66116,-10.26411 -4.29966,1.08424 1.46454,12.2073 4.32478,52.47645 3.76692,53.03431 -0.83783,0.83783 -21.68402,3.84171 -21.73149,3.13145 z m 119.55366,-18 c -0.65628,-2.04941 -12.62335,-79.00479 -12.31796,-79.21176 0.38171,-0.2587 27.258,-4.36703 27.36968,-4.18376 0.48515,0.79618 12.45361,79.93657 12.13678,80.2534 -0.43502,0.43502 -23.18426,4.33381 -25.50683,4.37139 -0.70477,0.0114 -1.46152,-0.54177 -1.68167,-1.22927 z m 41.97877,-7 c -0.23183,-0.6875 -2.95731,-17.64319 -6.05662,-37.67932 l -5.6351,-36.42932 2.338,-1.78323 c 3.17728,-2.42335 13.65042,-6.22804 23.338,-8.47824 5.59945,-1.30062 11.90089,-1.86147 21,-1.86905 11.70495,-0.01 13.48449,0.22766 17.86342,2.38327 5.28296,2.60064 9.89196,8.62688 11.68183,15.27392 0.54778,2.03433 2.92501,16.21625 5.28271,31.51537 l 4.28674,27.8166 -13.55735,2.1302 c -7.45654,1.17161 -13.84194,1.84661 -14.18977,1.5 -0.34783,-0.34661 -2.57211,-13.36634 -4.94284,-28.93273 -4.56138,-29.95035 -5.65968,-33.59087 -10.50055,-34.80585 C 291.31065,190.61017 281,192.70788 281,194.12278 c 0,1.23415 8.8835,59.63675 9.50217,62.46993 0.42843,1.96197 -0.27588,2.19634 -11.27259,3.75124 -14.05539,1.98738 -15.1709,2.01621 -15.71386,0.40605 z m 82.15423,-50.5 c -3.20153,-21.3125 -6.01236,-39.44313 -6.24628,-40.29028 -0.3474,-1.25809 2.00231,-1.936 12.82533,-3.70018 7.28786,-1.18794 13.51791,-1.84481 13.84457,-1.45972 0.65538,0.77264 13.13473,79.30521 12.67516,79.76479 -0.28354,0.28353 -25.13163,4.43539 -26.545,4.43539 -0.40305,0 -3.35225,-17.4375 -6.55378,-38.75 z M 212.26969,172.51741 c -3.90633,-1.69819 -7.26086,-6.86467 -7.26595,-11.19068 C 204.99663,155.29318 212.68677,149 220.06675,149 c 4.48345,0 9.78372,2.81017 11.4773,6.08519 3.53568,6.83724 0.66703,14.41283 -6.55139,17.30107 -4.88928,1.9563 -8.44039,1.99291 -12.72297,0.13115 z m 130.14875,-19.48626 c -1.14486,-0.46315 -3.28236,-2.26915 -4.75,-4.01334 -9.32072,-11.07705 7.99609,-26.103 20.43368,-17.73048 6.83952,4.60411 7.51391,11.79714 1.63748,17.46525 -5.05355,4.8744 -11.75588,6.52996 -17.32116,4.27857 z"
         id="path368" />
    </g>
  </g>
</svg>
